<?xml version="1.0" standalone="no"?>
<!DOCTYPE svg PUBLIC "-//W3C//DTD SVG 20010904//EN"
 "http://www.w3.org/TR/2001/REC-SVG-20010904/DTD/svg10.dtd">
<svg version="1.0" xmlns="http://www.w3.org/2000/svg"
 width="914.000000pt" height="775.000000pt" viewBox="0 0 914.000000 775.000000"
 preserveAspectRatio="xMidYMid meet">

<g transform="translate(0.000000,775.000000) scale(0.100000,-0.100000)"
fill="#000000" stroke="none">
<path d="M7613 7671 c-57 -41 -77 -97 -71 -198 4 -65 24 -135 116 -413 133
-401 180 -561 222 -752 49 -224 71 -387 77 -589 7 -218 -6 -362 -47 -524 -70
-279 -190 -485 -397 -685 -206 -200 -470 -335 -782 -399 l-104 -22 -121 124
c-150 153 -257 243 -419 351 -231 154 -462 257 -733 326 l-42 10 19 37 c30 59
26 139 -11 195 -33 50 -110 98 -158 98 -16 0 -32 6 -35 13 -2 6 -102 361 -222
787 -246 875 -230 835 -325 835 -90 0 -75 38 -310 -790 -116 -407 -217 -764
-225 -792 -12 -39 -20 -53 -34 -53 -39 0 -108 -32 -144 -68 -65 -63 -84 -180
-44 -261 15 -30 15 -32 -1 -38 -528 -182 -1017 -511 -1277 -862 -77 -104 -71
-102 -225 -77 -339 55 -644 269 -877 616 -206 308 -283 596 -270 1018 13 423
84 721 362 1522 73 209 74 332 2 407 -144 152 -400 -38 -685 -507 -344 -569
-605 -1245 -717 -1862 -76 -420 -78 -884 -5 -1236 118 -570 409 -1049 859
-1410 184 -148 364 -260 615 -383 l168 -82 -3 -151 -3 -151 -87 -90 c-150
-158 -186 -272 -136 -428 38 -118 97 -209 206 -318 331 -330 955 -548 1856
-648 415 -46 872 -66 1340 -58 595 11 1012 55 1434 153 778 180 1318 549 1426
974 24 93 17 238 -13 301 -32 67 -130 170 -193 203 -30 16 -55 30 -57 31 -2 2
-11 54 -22 116 -10 63 -32 157 -49 209 -16 52 -29 95 -27 97 1 1 56 16 122 32
143 36 251 88 442 214 589 386 945 922 1049 1578 15 92 18 174 18 429 0 350
-9 445 -71 760 -134 679 -454 1467 -817 2010 -96 145 -155 217 -243 299 -137
128 -248 162 -331 102z m143 -137 c237 -158 621 -803 857 -1440 211 -568 307
-1047 307 -1534 0 -377 -51 -659 -174 -952 -110 -264 -236 -449 -450 -664
-186 -187 -386 -333 -611 -449 -84 -43 -301 -104 -315 -88 -4 4 -22 53 -40
108 -153 472 -437 1132 -598 1390 -17 27 -30 51 -29 52 2 1 44 11 94 22 607
132 1073 559 1233 1130 48 170 64 301 64 531 0 418 -76 780 -306 1465 -138
412 -145 505 -32 429z m-6322 -210 c-1 -59 -16 -115 -103 -378 -206 -629 -277
-932 -303 -1308 -32 -463 58 -826 291 -1175 214 -320 466 -525 774 -628 104
-35 259 -65 334 -65 38 0 43 -3 49 -26 12 -48 -5 -247 -30 -355 -119 -513
-383 -1080 -571 -1223 l-35 -27 -127 58 c-324 148 -609 342 -834 566 -348 346
-550 755 -630 1278 -30 189 -32 590 -6 801 67 537 231 1070 496 1614 190 389
365 669 511 815 79 81 152 132 175 125 6 -2 9 -34 9 -72z m3340 -1396 c109
-392 201 -718 203 -725 9 -24 -178 -60 -352 -69 -163 -8 -463 31 -452 59 2 7
91 335 198 730 106 394 196 717 199 717 3 0 95 -321 204 -712z m378 -845 c70
-63 -60 -180 -255 -227 -114 -28 -301 -38 -465 -26 -147 11 -349 41 -409 61
-78 25 -110 123 -57 176 17 17 32 23 47 20 317 -74 369 -81 552 -81 156 0 197
4 305 27 69 14 150 35 180 46 69 24 79 25 102 4z m235 -347 c359 -104 679
-300 978 -601 144 -145 153 -156 232 -295 213 -378 402 -821 598 -1402 l63
-186 -21 -20 c-138 -124 -536 -294 -858 -366 -139 -31 -183 -32 -225 -7 -42
26 -50 57 -64 231 -82 1067 -356 1992 -766 2588 -35 50 -62 92 -60 92 3 0 58
-15 123 -34z m-168 -151 c179 -263 315 -549 435 -912 157 -480 263 -1059 302
-1653 8 -126 29 -184 86 -236 87 -78 160 -94 300 -64 352 76 689 205 895 343
l82 54 20 -56 c28 -77 51 -220 51 -317 0 -146 -59 -278 -169 -376 -118 -106
-517 -276 -915 -389 -861 -244 -2016 -277 -2960 -83 -410 84 -739 193 -1082
359 -184 88 -238 128 -295 216 -65 102 -79 196 -63 441 l7 96 58 51 57 51 167
-65 c529 -208 1097 -359 1685 -449 458 -70 985 -98 1075 -57 54 24 112 91 121
137 12 67 -35 515 -92 869 -137 850 -394 1585 -726 2079 -52 77 -57 88 -36 83
12 -3 86 -11 163 -18 246 -21 521 2 660 54 l40 16 33 -37 c19 -20 64 -82 101
-137z m-1213 121 c172 -206 355 -531 487 -866 217 -551 362 -1221 442 -2052
13 -130 6 -133 -278 -125 -807 24 -1657 209 -2514 547 -22 9 -21 11 33 97 165
261 312 641 405 1048 27 116 32 162 33 265 0 80 -4 139 -13 163 l-13 38 57 77
c77 103 268 291 385 378 241 179 488 311 795 425 72 27 133 48 137 49 4 0 24
-20 44 -44z m3631 -3184 c22 -45 25 -62 21 -120 -10 -124 -62 -233 -172 -361
-295 -341 -913 -588 -1716 -686 -711 -86 -1775 -66 -2490 46 -869 136 -1432
405 -1602 765 -42 90 -46 149 -15 217 23 51 90 137 107 137 4 0 12 -18 19 -40
18 -59 104 -182 171 -243 133 -120 580 -310 1010 -428 544 -149 1155 -219
1795 -206 537 12 955 63 1405 173 459 113 979 324 1128 459 103 94 183 234
213 377 l11 50 45 -43 c24 -24 56 -68 70 -97z"/>
<path d="M4914 4370 c-99 -31 -180 -130 -191 -232 -15 -146 94 -280 239 -295
146 -15 280 94 295 239 15 152 -98 285 -250 294 -34 2 -76 -1 -93 -6z m151
-174 c35 -23 51 -85 36 -136 -15 -51 -51 -75 -111 -75 -61 0 -96 24 -111 76
-27 88 35 166 124 155 21 -2 49 -11 62 -20z"/>
<path d="M5354 3050 c-99 -31 -180 -130 -191 -232 -15 -146 94 -280 239 -295
146 -15 280 94 295 239 15 152 -98 285 -250 294 -34 2 -76 -1 -93 -6z m150
-164 c14 -9 31 -34 37 -56 33 -108 -64 -193 -166 -144 -41 19 -65 62 -65 114
0 42 15 67 53 91 37 23 102 21 141 -5z"/>
<path d="M3094 1560 c-99 -31 -180 -130 -191 -232 -15 -146 94 -280 239 -295
146 -15 280 94 295 239 15 152 -98 285 -250 294 -34 2 -76 -1 -93 -6z m132
-145 c61 -25 81 -117 39 -181 -22 -34 -84 -50 -135 -35 -95 28 -106 157 -17
211 38 24 66 25 113 5z"/>
<path d="M5504 1560 c-99 -31 -180 -130 -191 -232 -15 -146 94 -280 239 -295
146 -15 280 94 295 239 15 152 -98 285 -250 294 -34 2 -76 -1 -93 -6z m135
-155 c30 -15 61 -69 61 -104 0 -46 -28 -91 -67 -107 -104 -44 -199 43 -162
149 23 67 103 96 168 62z"/>
</g>
</svg>
